<?xml version="1.0" encoding="utf-8"?>
<!-- Generator: Adobe Illustrator 16.0.4, SVG Export Plug-In . SVG Version: 6.00 Build 0)  -->
<!DOCTYPE svg PUBLIC "-//W3C//DTD SVG 1.1//EN" "http://www.w3.org/Graphics/SVG/1.1/DTD/svg11.dtd">
<svg version="1.1" id="Layer_1" xmlns="http://www.w3.org/2000/svg" xmlns:xlink="http://www.w3.org/1999/xlink" x="0px" y="0px"
	 width="99.256px" height="93.235px" viewBox="0 0 99.256 93.235" style="enable-background:new 0 0 99.256 93.235;"
	 xml:space="preserve">
<style type="text/css">
<![CDATA[
	.st0{fill:#FFFFFF;}
]]>
</style>
<path class="st0" d="M59.943,93.235c-0.652,0-1.288-0.224-1.769-0.418c-1.656-0.676-0.848-3.424,0.271-7.228
	c0.589-1.997,1.194-4.05,1.368-5.628c-5.752-4.688-10.736-13.951-11.77-15.948c-7.992-5.149-18.755-15.958-22.88-29.554
	c-1.138-3.737-3.257-7.562-3.833-8.228c-0.21-0.064-0.399-0.115-0.583-0.165c-0.151-0.041-0.3-0.081-0.457-0.126
	c-2.364-0.701-5.92-4.218-10.571-10.456l-0.231-0.307c-0.282-0.355-2.319-0.783-3.754-0.783c-0.218,0-0.406,0.011-0.55,0.036
	c-0.138,0.024-0.271,0.036-0.397,0.036c-1.162,0-1.814-0.929-2.092-1.326c-0.794-0.591-0.968-1.368-0.995-1.773
	c-0.028-0.464,0.08-0.94,0.322-1.418C1.357,9.681,0.296,9.104,0.051,8.103c-0.16-0.65,0.054-1.275,0.634-1.856
	C0.892,6.04,1.149,5.837,1.45,5.645c0.434-0.276,1.076-0.416,1.908-0.416c3.155,0,9.105,1.949,16.753,5.488
	c1.144,0.529,2.505,0.641,3.445,0.641c0.589,0,1.079-0.042,1.376-0.076c-1.599-1.976-1.095-3.974-0.798-4.75
	c0.237-0.625,0.617-1.227,1.04-1.651c0.283-0.284,0.725-0.622,1.219-0.622l0.129,0.002c0.995,0,1.876-0.56,2.52-0.969
	c0.359-0.228,0.63-0.4,0.903-0.484c0.391-0.127,1.214-0.396,2.429-0.396c0.963,0,1.994,0.167,3.065,0.498
	c0.493-0.769,1.052-1.434,1.486-1.93l0.195-0.226c0.132-0.154,0.21-0.245,0.297-0.332C37.705,0.134,37.978,0,38.278,0
	c0.051,0,0.103,0.004,0.154,0.012c0.258,0.041,0.61,0.199,0.827,0.726c0.193,0.457,0.274,2.972,0.305,4.5
	c0.749,0.933,1.301,1.92,1.686,3.015c1.681,4.792,0.524,11.365,0.116,12.208l-0.176,0.553c2.211,2.859,2.311,4.205,2.508,6.877
	c0.065,0.883,0.147,1.982,0.347,3.419c0.686,4.947,10.045,13.895,15.935,17.643l0.264,0.102c4.153,2.425,21.107,5.594,27.91,5.594
	c1.41,0,2.064-0.139,2.365-0.255c2.297-0.892,4.102-1.325,5.515-1.325c1.045,0,1.877,0.231,2.545,0.708l0.679,0.486l-0.509,0.663
	c-0.287,0.379-0.615,0.754-0.975,1.112c-3.245,3.245-9.005,5.032-16.219,5.032c-5.331,0-11.367-0.971-17.463-2.808
	c0.118,1.205,0.885,3.756,1.349,5.298c0.347,1.157,0.634,2.115,0.784,2.792c0.273,1.224,2.122,3.021,3.345,4.211
	c1.085,1.059,1.659,1.634,1.843,2.147c0.493,1.381-0.947,12.812-0.962,12.925c0.218,1.133,0.424,3.344-0.678,4.443
	c-0.436,0.417-0.974,0.623-1.584,0.623c-0.276,0-0.573-0.042-0.883-0.125c-1.558-0.415-2.253-2.39-2.301-6.577
	c-0.382,1.057-0.8,2.175-1.243,3.341c-0.607,1.592-1.049,2.763-1.204,3.335c-0.242,0.864-0.56,1.484-0.974,1.897
	c-0.18,0.18-0.376,0.321-0.601,0.433C60.672,93.158,60.323,93.235,59.943,93.235z M58.863,91.331
	c0.474,0.191,0.832,0.284,1.093,0.284l0,0c0.123,0,0.226-0.021,0.312-0.063c0.054-0.026,0.111-0.069,0.17-0.128
	c0.146-0.146,0.363-0.472,0.557-1.18c0.182-0.664,0.66-1.923,1.213-3.379l0.039-0.103c1.192-3.13,3.189-8.369,2.95-9.794
	c-0.223-1.334-0.643-1.996-1.048-2.636c-0.241-0.377-0.512-0.8-0.688-1.316c-0.102-0.296-0.026-0.617,0.194-0.838
	c0.086-0.087,0.189-0.151,0.306-0.193c0.087-0.029,0.175-0.044,0.263-0.044c0.345,0,0.652,0.219,0.766,0.546
	c0.118,0.337,0.306,0.629,0.522,0.967c0.442,0.699,0.987,1.561,1.27,3.188c0.098,0.345,0.072,0.93-0.014,2.565
	c-0.338,6.246-0.016,9.545,0.958,9.806c0.175,0.046,0.333,0.07,0.469,0.07c0.275,0,0.375-0.095,0.423-0.141
	c0.443-0.442,0.532-1.671,0.222-3.124l-0.01-0.285c0.278-1.77,1.287-11.304,1.05-12.308c-0.092-0.191-0.836-0.915-1.434-1.496
	c-1.533-1.495-3.424-3.338-3.8-5.025c-0.141-0.627-0.45-1.66-0.75-2.659c-1.27-4.23-1.72-6.135-1.232-7.03
	c0.05-0.094,0.115-0.182,0.197-0.268c0.133-0.135,0.29-0.228,0.47-0.276l0.34-0.102l0.205,0.148
	c6.045,1.876,12.153,2.889,17.584,2.889c6.869,0,12.279-1.627,15.234-4.582l0.071-0.075c-0.217-0.039-0.46-0.06-0.725-0.06
	c-1.2,0-2.86,0.408-4.934,1.214c-0.584,0.226-1.56,0.34-2.9,0.34c-7.451,0.001-24.62-3.438-28.704-5.748l-0.3-0.123
	c-5.439-3.433-15.938-12.903-16.761-18.841c-0.204-1.46-0.289-2.6-0.356-3.517c-0.196-2.639-0.27-3.627-2.43-6.333l-0.271-0.342
	l0.484-1.483c0.305-0.742,2.32-12.114-3.062-14.688c-1.6-0.765-3.078-1.152-4.396-1.152c-0.943,0-1.549,0.197-1.874,0.304
	c-0.187,0.061-0.431,0.216-0.609,0.33c-0.779,0.495-1.938,1.231-3.401,1.231l-0.109-0.001c-0.236,0.253-0.8,0.942-0.946,1.909
	c-0.179,1.173,0.304,2.246,1.437,3.191l0.434,0.359l-0.363,1.067l-0.384,0.178c-0.387,0.166-1.622,0.405-3.067,0.405
	c-1.078,0-2.663-0.139-4.094-0.801c-7.074-3.274-13.36-5.39-16.014-5.39c-0.498,0-0.876,0.074-1.095,0.213
	c-0.209,0.131-0.377,0.261-0.5,0.385C1.645,7.572,1.615,7.681,1.624,7.714c0.085,0.349,1.125,0.902,1.795,0.96l1.777,0.157
	L4.747,9.264c-0.857,0.824-0.857,0.824-0.878,0.84c-0.268,0.274-0.581,0.747-0.551,1.162c0.006,0.084,0.024,0.336,0.438,0.641
	l0.251,0.286c0.298,0.421,0.516,0.654,0.794,0.654c0.033,0,0.068-0.003,0.104-0.01c0.195-0.034,0.476-0.052,0.813-0.052
	c1.106,0,4.171,0.253,5.056,1.409l0.244,0.324c5.82,7.802,8.597,9.533,9.734,9.87c0.677,0.2,1.234,0.293,1.751,0.293
	c0.289,0,0.538-0.027,0.783-0.055c0.258-0.028,0.503-0.048,0.75-0.048c0.961,0,1.961,0.283,3.971,1.695
	c0.176,0.124,0.294,0.31,0.331,0.524c0.037,0.213-0.011,0.428-0.135,0.604c-0.23,0.237-0.458,0.339-0.685,0.339
	c-0.159,0-0.312-0.049-0.444-0.142c-1.667-1.17-2.392-1.405-3.022-1.405c-0.196,0-0.385,0.021-0.59,0.043l-0.183,0.016
	c1.025,1.668,2.549,4.828,3.435,7.735c4.333,14.282,16.093,24.775,22.359,28.724l0.277,0.178l0.039,0.224
	c0.03,0.032,5.649,11.087,11.768,15.849l0.337,0.261l-0.026,0.427c-0.111,1.795-0.799,4.13-1.463,6.388
	C59.491,87.778,58.646,90.644,58.863,91.331z M37.138,3.552c0.115,0.044,0.236,0.093,0.364,0.155
	c0.121,0.058,0.234,0.132,0.342,0.208l0.062,0.041c-0.02-0.567-0.04-1.109-0.065-1.559c-0.331,0.389-0.61,0.749-0.85,1.094
	L37.138,3.552z"/>
</svg>
