<?xml version="1.0" encoding="utf-8"?>
<!-- Generator: Adobe Illustrator 16.0.4, SVG Export Plug-In . SVG Version: 6.00 Build 0)  -->
<!DOCTYPE svg PUBLIC "-//W3C//DTD SVG 1.1//EN" "http://www.w3.org/Graphics/SVG/1.1/DTD/svg11.dtd">
<svg version="1.1" id="Layer_1" xmlns="http://www.w3.org/2000/svg" xmlns:xlink="http://www.w3.org/1999/xlink" x="0px" y="0px"
	 width="30px" height="29.998px" viewBox="0 0 30 29.998" enable-background="new 0 0 30 29.998" xml:space="preserve">
<g>
	<g id="Boundingbox">
		<rect y="-0.001" fill="none" width="30" height="30"/>
	</g>
	<g id="Vector">
		<path fill="#FFFFFF" d="M11.956,25.491c-0.453,0-0.884-0.165-1.212-0.463l-7.506-6.803c-0.347-0.313-0.549-0.744-0.571-1.213
			c-0.021-0.469,0.141-0.914,0.457-1.259l3.21-3.496c0.624-0.681,1.788-0.734,2.473-0.113l2.956,2.681
			c0.132,0.118,0.444,0.134,0.586,0.026l10.833-8.137c0.717-0.539,1.867-0.441,2.483,0.207l1.621,1.7
			c0.659,0.694,0.644,1.806-0.037,2.479L13.227,24.974C12.89,25.308,12.439,25.491,11.956,25.491z M7.628,13.192
			c-0.043,0-0.125,0.011-0.189,0.08l-3.21,3.497c-0.059,0.063-0.065,0.139-0.063,0.176c0.002,0.039,0.014,0.111,0.08,0.17
			l7.506,6.803c0.203,0.184,0.339,0.072,0.421-0.009l14.022-13.872c0.1-0.1,0.103-0.275,0.005-0.378l-1.621-1.7
			c-0.112-0.119-0.366-0.139-0.496-0.042L13.25,16.054c-0.705,0.528-1.841,0.478-2.495-0.115l-2.956-2.681
			C7.74,13.204,7.673,13.192,7.628,13.192z"/>
	</g>
</g>
</svg>
