<?xml version="1.0" encoding="utf-8"?>
<!-- Generator: Adobe Illustrator 16.0.4, SVG Export Plug-In . SVG Version: 6.00 Build 0)  -->
<!DOCTYPE svg PUBLIC "-//W3C//DTD SVG 1.1//EN" "http://www.w3.org/Graphics/SVG/1.1/DTD/svg11.dtd">
<svg version="1.1" id="Layer_1" xmlns="http://www.w3.org/2000/svg" xmlns:xlink="http://www.w3.org/1999/xlink" x="0px" y="0px"
	 width="56.058px" height="10.662px" viewBox="0 0 56.058 10.662" style="enable-background:new 0 0 56.058 10.662;"
	 xml:space="preserve">
<style type="text/css">
<![CDATA[
	.st0{fill:#FFFFFF;}
]]>
</style>
<g>
	<path class="st0" d="M0.528,10.17C0.228,10.17,0,9.966,0,9.691C0,9.546,0.06,9.39,0.192,9.235C1.571,7.64,1.895,5.589,1.895,3.501
		c0-0.947-0.06-1.895-0.132-2.806c0-0.024,0-0.036,0-0.048c0-0.348,0.264-0.516,0.552-0.516c0.288,0,0.6,0.18,0.6,0.564
		c0.012,0.611,0.024,1.271,0.024,1.967c0.132-0.155,0.24-0.323,0.335-0.468C3.37,2.05,3.502,1.979,3.646,1.979
		c0.288,0,0.587,0.264,0.587,0.54c0,0.096-0.036,0.191-0.108,0.287C3.562,3.49,2.914,3.837,2.914,3.837
		c-0.036,0.84-0.12,1.68-0.264,2.482c0.06,0.013,0.12,0.037,0.168,0.072c0.036,0.024,1.223,0.9,1.223,1.416c0,0.323-0.3,0.6-0.6,0.6
		c-0.144,0-0.3-0.072-0.408-0.252c-0.168-0.275-0.396-0.611-0.6-0.863C2.063,8.648,1.247,10.17,0.528,10.17z M0.012,5.049
		c0-0.12,0.024-0.239,0.096-0.372c0.24-0.443,0.36-0.959,0.36-1.486c0-0.084,0-0.181-0.012-0.265c0-0.012,0-0.036,0-0.048
		c0-0.312,0.228-0.468,0.468-0.468c0.48,0,0.563,0.348,0.563,0.827c0,0.037-0.072,2.327-0.971,2.327
		C0.252,5.565,0.012,5.361,0.012,5.049z M2.722,10.662c-0.419,0-0.6-0.264-0.6-0.527c0-0.252,0.168-0.504,0.468-0.552
		c1.715-0.239,2.591-0.935,2.818-2.267c0.06-0.312,0.288-0.443,0.516-0.443c0.312,0,0.635,0.215,0.635,0.527
		c0,0.023-0.012,0.061-0.012,0.084C6.033,10.302,3.106,10.662,2.722,10.662z M9.834,8.288c0-0.336,0.252-0.479,0.516-0.479
		c0.036,0,0.6,0,0.6,0.563c0,1.883-0.792,2.038-2.303,2.038c-0.983,0-1.547-0.191-1.547-1.379c0-0.719,0.024-1.691,0.048-2.398H4.03
		c-0.312,0-0.48-0.229-0.48-0.455c0-0.217,0.168-0.444,0.48-0.444h0.887V4.57H3.91c-0.3,0-0.456-0.229-0.456-0.444
		c0-0.228,0.156-0.443,0.456-0.443h1.007V2.999c0-0.288,0.252-0.433,0.504-0.433c0.24,0,0.492,0.145,0.492,0.433v0.684h2.135V3.023
		c0-0.301,0.264-0.444,0.528-0.444c0.252,0,0.516,0.144,0.516,0.444v0.659h1.271c0.3,0,0.456,0.216,0.456,0.443
		c0,0.216-0.156,0.444-0.456,0.444H9.091v1.163h0.972c0.3,0,0.456,0.228,0.456,0.444c0,0.227-0.156,0.455-0.456,0.455H8.239
		C8.215,7.412,8.191,8.324,8.191,8.912c0,0.432,0.204,0.455,0.624,0.455c0.899,0,1.02-0.072,1.02-0.947c0-0.036,0-0.084,0-0.12
		V8.288z M7.52,2.171v0.707c0,0.3-0.276,0.455-0.54,0.455c-0.276,0-0.552-0.155-0.552-0.455V2.171H4.474
		c-0.312,0-0.48-0.229-0.48-0.469c0-0.228,0.168-0.455,0.48-0.455h1.955v-0.72C6.428,0.168,6.692,0,6.968,0
		C7.244,0,7.52,0.18,7.52,0.528v0.72h2.207c0.3,0,0.456,0.228,0.456,0.455c0,0.24-0.156,0.469-0.456,0.469H7.52z M8.047,4.57H5.913
		v1.163h2.135V4.57z"/>
	<path class="st0" d="M17.912,5.625c0.432,0.553,0.912,1.512,0.78,2.195c-0.12,0.623-0.696,0.731-1.235,0.42
		c-0.636-0.372-2.339-0.611-3.178-0.204c-0.624,0.3-0.372,0.936,0.18,1.163c0.528,0.229,1.2,0.324,1.943,0.18
		c1.067-0.203,1.139,1.128,0.06,1.224c-0.887,0.072-1.667-0.108-2.375-0.407c-1.415-0.6-1.751-2.279-0.408-2.963
		c0.888-0.455,2.363-0.359,3.154-0.264c0.647,0.084,0.839-0.096,0.144-1.031c-0.084-0.12-0.18-0.229-0.264-0.359
		c-0.875,0.239-1.871,0.383-2.758,0.323c-0.828-0.06-0.936-1.283,0.084-1.151c0.624,0.084,1.379,0,2.063-0.168
		c-0.18-0.312-0.372-0.66-0.564-1.031c-0.576,0.119-1.223,0.191-1.907,0.191c-0.78,0-1.02-1.163-0.06-1.092
		c0.528,0.037,1.031,0,1.487-0.071C14.793,2.027,14.53,1.5,14.194,1.127c-0.671-0.756,0.6-1.211,1.031-0.624
		c0.276,0.385,0.564,1.08,0.864,1.812c0.3-0.097,0.552-0.216,0.755-0.324c0.792-0.419,1.248,0.636,0.612,0.936
		c-0.276,0.132-0.587,0.252-0.959,0.372c0.156,0.348,0.324,0.684,0.516,1.008c0.372-0.133,0.684-0.264,0.899-0.385
		c0.84-0.479,1.355,0.624,0.684,0.96c-0.251,0.132-0.575,0.264-0.947,0.396C17.732,5.397,17.828,5.505,17.912,5.625z"/>
	<path class="st0" d="M24.27,8.408c0.096,1.715-1.439,1.691-2.423,1.211c-1.427-0.695-1.031-1.547-0.396-2.242
		c0.372-0.396,0.983-0.864,1.691-1.271c-0.012-0.504-0.024-1.02-0.024-1.5c-0.492,0.097-0.983,0.108-1.439,0.049
		c-0.887-0.108-0.744-1.308,0.252-1.104c0.3,0.06,0.744,0.012,1.211-0.108c0-0.563-0.024-0.947-0.048-1.403
		c-0.048-0.887,1.271-0.863,1.211-0.012c-0.024,0.264-0.036,0.647-0.06,1.008c0.18-0.084,0.335-0.18,0.479-0.276
		c0.648-0.432,1.379,0.517,0.54,1.02c-0.359,0.216-0.743,0.396-1.127,0.54c-0.012,0.371-0.012,0.815,0,1.271
		c0.335-0.156,0.684-0.276,1.007-0.372c1.031-0.3,2.051-0.204,2.663,0.012c1.979,0.684,1.655,2.303,1.043,3.19
		c-0.78,1.127-2.459,1.512-3.85,0.72c-0.684-0.396-0.216-1.38,0.516-1.02c0.936,0.456,1.703,0.468,2.279-0.3
		c0.288-0.384,0.624-1.235-0.42-1.619c-0.467-0.18-1.103-0.216-1.943-0.023c-0.432,0.096-0.852,0.264-1.259,0.455
		C24.198,7.268,24.246,7.892,24.27,8.408z M22.255,8.023c-0.252,0.276-0.252,0.588,0.024,0.721c0.516,0.252,0.864,0.215,0.875-0.252
		c0.012-0.324,0.012-0.768,0-1.26C22.807,7.484,22.507,7.748,22.255,8.023z M29.055,4.234c-0.312-0.275-0.971-0.564-1.583-0.492
		c-0.731,0.084-0.923-0.983-0.06-1.055c0.864-0.072,2.063,0.228,2.495,0.684c0.288,0.299,0.216,0.635,0.012,0.852
		C29.715,4.437,29.355,4.498,29.055,4.234z"/>
	<path class="st0" d="M32.188,9.558c-0.959-2.362-0.012-5.912,0.204-7.34c0.132-0.887,1.295-0.623,1.164,0.072
		c-0.192,0.972-0.912,3.79-0.624,4.905c0.036,0.156,0.084,0.12,0.132,0.013c0.024-0.061,0.156-0.301,0.204-0.385
		c0.372-0.587,1.116-0.012,0.84,0.469c-0.444,0.779-0.636,1.33-0.708,1.679c-0.072,0.323,0.072,0.695-0.228,0.96
		C32.872,10.195,32.428,10.146,32.188,9.558z M35.402,8.707c-0.492-0.539,0.228-1.391,0.852-0.826
		c0.648,0.587,2.087,0.395,3.022,0.203c0.972-0.203,1.032,1.067,0.24,1.271C38.233,9.679,36.266,9.642,35.402,8.707z M36.086,3.921
		c-0.66,0.168-1.043-0.898-0.168-1.115c1.067-0.264,2.314-0.275,3.154-0.072c0.839,0.205,0.611,1.332-0.204,1.152
		C38.005,3.707,37.094,3.669,36.086,3.921z"/>
	<path class="st0" d="M47.034,5.625c0.432,0.553,0.911,1.512,0.779,2.195c-0.12,0.623-0.695,0.731-1.235,0.42
		c-0.636-0.372-2.338-0.611-3.178-0.204c-0.624,0.3-0.372,0.936,0.18,1.163c0.527,0.229,1.199,0.324,1.943,0.18
		c1.067-0.203,1.139,1.128,0.06,1.224c-0.888,0.072-1.667-0.108-2.375-0.407c-1.415-0.6-1.751-2.279-0.408-2.963
		c0.888-0.455,2.363-0.359,3.154-0.264c0.647,0.084,0.839-0.096,0.144-1.031c-0.084-0.12-0.18-0.229-0.264-0.359
		c-0.875,0.239-1.871,0.383-2.758,0.323c-0.828-0.06-0.936-1.283,0.084-1.151c0.624,0.084,1.379,0,2.063-0.168
		c-0.18-0.312-0.372-0.66-0.564-1.031c-0.576,0.119-1.223,0.191-1.907,0.191c-0.78,0-1.02-1.163-0.06-1.092
		c0.528,0.037,1.031,0,1.487-0.071c-0.264-0.552-0.528-1.079-0.864-1.451c-0.671-0.756,0.6-1.211,1.032-0.624
		c0.276,0.385,0.563,1.08,0.863,1.812c0.3-0.097,0.552-0.216,0.756-0.324c0.792-0.419,1.247,0.636,0.611,0.936
		c-0.276,0.132-0.587,0.252-0.959,0.372c0.156,0.348,0.324,0.684,0.516,1.008c0.372-0.133,0.684-0.264,0.9-0.385
		c0.839-0.479,1.355,0.624,0.684,0.96c-0.252,0.132-0.576,0.264-0.948,0.396C46.854,5.397,46.95,5.505,47.034,5.625z M47.813,2.59
		c-0.12-0.216-0.636-0.731-0.852-0.876c-0.552-0.359,0.024-0.994,0.54-0.695c0.288,0.168,0.839,0.6,1.055,0.924
		C48.929,2.519,48.125,3.119,47.813,2.59z M49.084,1.727c-0.132-0.204-0.648-0.708-0.875-0.839
		c-0.564-0.336-0.012-0.972,0.516-0.696c0.3,0.155,0.852,0.563,1.08,0.876C50.2,1.631,49.408,2.243,49.084,1.727z"/>
	<path class="st0" d="M52.437,9.474c1.859-1.211,2.915-3.801,2.087-6.308c-0.396-1.2-1.535-0.756-1.883-0.013
		c-0.348,0.732-0.372,1.224-0.312,2.268c0.06,1.163-1.235,1.15-1.307,0.287c-0.072-0.947,0.132-2.099,0.276-2.77
		c0.132-0.612,0.359-1.404,0.456-2.135c0.096-0.756,1.259-0.612,1.199,0.107c-0.036,0.408-0.18,0.828-0.312,1.115
		c-0.156,0.324-0.036,0.168,0.084,0.012c0.876-1.127,2.435-0.635,2.927,0.72c0.875,2.423,0.443,5.577-2.375,7.651
		C52.305,11.13,51.429,10.134,52.437,9.474z"/>
</g>
</svg>
