<?xml version="1.0" encoding="utf-8"?>
<!-- Generator: Adobe Illustrator 16.0.4, SVG Export Plug-In . SVG Version: 6.00 Build 0)  -->
<!DOCTYPE svg PUBLIC "-//W3C//DTD SVG 1.1//EN" "http://www.w3.org/Graphics/SVG/1.1/DTD/svg11.dtd">
<svg version="1.1" id="Layer_1" xmlns="http://www.w3.org/2000/svg" xmlns:xlink="http://www.w3.org/1999/xlink" x="0px" y="0px"
	 width="30px" height="29.998px" viewBox="0 0 30 29.998" style="enable-background:new 0 0 30 29.998;" xml:space="preserve">
<style type="text/css">
<![CDATA[
	.st0{fill:none;}
]]>
</style>
<g>
	<g id="Boundingbox">
		<rect y="-0.001" class="st0" width="30" height="30"/>
	</g>
	<g id="Vector">
		<path d="M15,27.284c-1.231,0-2.455-0.184-3.638-0.549c-0.16-0.049-0.292-0.161-0.364-0.312c-0.075,0.031-0.17,0.054-0.244,0.048
			c-0.081-0.004-0.155-0.013-0.229-0.041c-4.744-1.856-7.81-6.347-7.81-11.437c0-6.772,5.511-12.283,12.284-12.283
			c6.772,0,12.284,5.513,12.284,12.289C27.284,21.774,21.773,27.284,15,27.284z M12.457,25.79c0.835,0.195,1.687,0.295,2.543,0.295
			c6.111,0,11.084-4.973,11.084-11.084c0-6.113-4.973-11.09-11.084-11.09c-6.112,0-11.084,4.973-11.084,11.084
			c0,4.262,2.382,8.057,6.146,9.92c-0.048-0.85-0.036-1.786,0.14-2.529c0.185-0.802,1.109-4.707,1.324-5.617
			c-0.121-0.315-0.318-0.961-0.318-1.783c0-1.928,1.191-3.438,2.712-3.438c1.245,0,2.081,0.9,2.081,2.242
			c0,0.73-0.274,1.617-0.564,2.555c-0.15,0.487-0.305,0.987-0.421,1.473c-0.084,0.352-0.02,0.685,0.181,0.938
			c0.217,0.276,0.569,0.435,0.963,0.435c1.779,0,3.07-1.998,3.07-4.752c0-2.443-1.758-4.15-4.277-4.15
			c-3.035,0-4.673,2.305-4.673,4.473c0,0.918,0.368,1.844,0.731,2.282c0.213,0.263,0.279,0.562,0.196,0.875
			c-0.086,0.356-0.282,1.16-0.325,1.324c-0.117,0.481-0.48,0.657-0.78,0.657c-0.139,0-0.283-0.034-0.439-0.105
			c-1.769-0.824-2.721-3.229-2.721-5.07c0-3.693,2.603-7.668,8.317-7.668c4.447,0,7.8,3.157,7.8,7.348
			c0,4.484-2.863,7.867-6.662,7.867c-0.865,0-1.729-0.285-2.371-0.742l-0.453,1.729C13.356,24.095,12.874,25.058,12.457,25.79z
			 M13.92,12.746c-0.848,0-1.512,0.983-1.512,2.239c0,0.863,0.283,1.463,0.286,1.47c0.06,0.123,0.077,0.269,0.045,0.399
			c0,0.002-1.158,4.894-1.368,5.804c-0.148,0.628-0.172,1.589-0.07,2.735c0.377-0.646,0.904-1.64,1.111-2.44l0.728-2.779
			c0.063-0.239,0.267-0.416,0.513-0.444c0.245-0.023,0.485,0.101,0.599,0.319c0.256,0.49,1.149,1.021,2.145,1.021
			c3.115,0,5.463-2.866,5.463-6.668c0-3.506-2.838-6.148-6.601-6.148c-4.89,0-7.117,3.354-7.117,6.469
			c0,1.325,0.636,3.043,1.687,3.785c0.063-0.256,0.138-0.562,0.191-0.783c-0.564-0.732-0.94-1.908-0.94-2.965
			c0-2.748,2.059-5.671,5.873-5.671c3.225,0,5.479,2.2,5.479,5.351c0,3.449-1.797,5.951-4.271,5.951
			c-0.765,0-1.459-0.324-1.906-0.891c-0.433-0.55-0.577-1.246-0.406-1.961c0.122-0.51,0.284-1.036,0.442-1.548
			c0.262-0.849,0.51-1.649,0.51-2.2C14.8,13.399,14.686,12.746,13.92,12.746z"/>
	</g>
</g>
</svg>
