<?xml version="1.0" encoding="utf-8"?>
<!-- Generator: Adobe Illustrator 16.0.4, SVG Export Plug-In . SVG Version: 6.00 Build 0)  -->
<!DOCTYPE svg PUBLIC "-//W3C//DTD SVG 1.1//EN" "http://www.w3.org/Graphics/SVG/1.1/DTD/svg11.dtd">
<svg version="1.1" id="Layer_1" xmlns="http://www.w3.org/2000/svg" xmlns:xlink="http://www.w3.org/1999/xlink" x="0px" y="0px"
	 width="30px" height="29.998px" viewBox="0 0 30 29.998" style="enable-background:new 0 0 30 29.998;" xml:space="preserve">
<style type="text/css">
<![CDATA[
	.st0{fill:none;}
]]>
</style>
<g>
	<g id="Boundingbox">
		<rect y="-0.001" class="st0" width="30" height="30"/>
	</g>
	<g id="Vector">
		<path d="M11.312,25.668c-2.69,0-5.311-0.769-7.577-2.22C3.5,23.298,3.4,23.005,3.494,22.742c0.094-0.265,0.354-0.431,0.634-0.396
			c1.826,0.211,3.738-0.145,5.35-1.031c-1.59-0.524-2.876-1.781-3.406-3.436c-0.065-0.201-0.018-0.422,0.122-0.58
			c0.058-0.066,0.129-0.117,0.207-0.15c-1.238-0.987-2.016-2.508-2.016-4.172c0-0.213,0.112-0.438,0.295-0.547
			c0.163-0.096,0.358-0.134,0.531-0.068c-0.508-0.826-0.788-1.789-0.788-2.793c0-0.943,0.25-1.87,0.723-2.68
			c0.1-0.17,0.275-0.281,0.472-0.297C5.817,6.578,6.005,6.66,6.13,6.813c2.141,2.627,5.236,4.302,8.58,4.664
			c-0.011-0.14-0.017-0.279-0.017-0.42c0-2.939,2.392-5.332,5.333-5.332c1.353,0,2.662,0.521,3.646,1.438
			c0.882-0.206,1.724-0.545,2.505-1.009c0.215-0.129,0.484-0.108,0.68,0.046c0.195,0.155,0.274,0.415,0.199,0.651
			c-0.152,0.477-0.369,0.924-0.643,1.332c0.156-0.059,0.311-0.121,0.464-0.189c0.244-0.105,0.53-0.042,0.702,0.162
			c0.172,0.205,0.188,0.498,0.04,0.72c-0.617,0.925-1.374,1.731-2.25,2.409c0.002,0.105,0.004,0.213,0.004,0.318
			C25.374,18.519,20.113,25.668,11.312,25.668z M5.332,23.356c2.004,0.601,4.316,1.111,5.981,1.111
			c8.05,0,12.861-6.539,12.861-12.861c0-0.196-0.004-0.394-0.013-0.586c-0.009-0.203,0.084-0.396,0.248-0.514
			c0.323-0.234,1.756-1.268,2.044-1.54c-0.641,0.267-1.698,0.778-1.984,0.812c-0.283,0.035-0.541-0.028-0.633-0.297
			c-0.091-0.268,0.125-0.354,0.368-0.5c0.349-0.209,1.358-1.108,1.922-1.812c-1,0.625-2.042,1.144-2.528,1.238
			c-0.203,0.04-0.412-0.028-0.554-0.179c-0.778-0.83-1.878-1.306-3.017-1.306c-2.278,0-4.133,1.854-4.133,4.132
			c0,0.319,0.037,0.637,0.107,0.942c0.042,0.183-0.003,0.376-0.124,0.521c-0.121,0.146-0.292,0.215-0.491,0.215
			c-3.644-0.184-7.078-1.789-9.56-4.445c-0.134,0.41-0.203,0.844-0.203,1.281c0,1.385,0.688,2.67,1.839,3.438
			c0.223,0.147,0.32,0.429,0.238,0.683c-0.082,0.256-0.313,0.394-0.591,0.416c-0.481-0.016-1.188-0.25-1.704-0.547
			c0.358,1.586,1.883,3.144,3.493,3.467c0.273,0.056,0.472,0.289,0.481,0.567c0.009,0.278-0.173,0.526-0.441,0.601
			c-0.434,0.117-1.033,0.101-1.611-0.071c0.722,1.2,2.302,2.231,3.748,2.26c0.253,0.004,0.477,0.168,0.558,0.409
			c0.081,0.24,0.001,0.506-0.199,0.662C9.982,22.595,7.896,23.481,5.332,23.356z"/>
	</g>
</g>
</svg>
