<?xml version="1.0" encoding="utf-8"?>
<!-- Generator: Adobe Illustrator 16.0.4, SVG Export Plug-In . SVG Version: 6.00 Build 0)  -->
<!DOCTYPE svg PUBLIC "-//W3C//DTD SVG 1.1//EN" "http://www.w3.org/Graphics/SVG/1.1/DTD/svg11.dtd">
<svg version="1.1" id="Layer_1" xmlns="http://www.w3.org/2000/svg" xmlns:xlink="http://www.w3.org/1999/xlink" x="0px" y="0px"
	 width="30px" height="29.998px" viewBox="0 0 30 29.998" style="enable-background:new 0 0 30 29.998;" xml:space="preserve">
<g>
	<g id="Vector">
		<path d="M16.789,27.151h-4.242c-0.332,0-0.6-0.271-0.6-0.602V16.61H9c-0.332,0-0.6-0.27-0.6-0.601v-4.107
			c0-0.332,0.269-0.6,0.6-0.6h2.947v-2.43c0-3.72,2.254-6.028,5.883-6.028c1.52,0,2.846,0.111,3.25,0.166
			c0.298,0.04,0.52,0.295,0.52,0.596v3.672c0,0.332-0.269,0.601-0.6,0.601h-2.175c-1.296,0-1.437,0.449-1.437,1.4v2.022h3.467
			c0.172,0,0.336,0.073,0.451,0.202c0.112,0.13,0.166,0.302,0.145,0.474l-0.529,4.108c-0.039,0.301-0.293,0.521-0.595,0.521h-2.938
			v9.939C17.389,26.883,17.121,27.151,16.789,27.151z M13.147,25.952h3.042v-9.939c0-0.332,0.269-0.601,0.6-0.601h3.01l0.375-2.909
			h-3.385c-0.332,0-0.6-0.27-0.6-0.6V9.28c0-1.116,0.271-2.6,2.636-2.6L20.4,6.679V4.147c-0.588-0.049-1.527-0.104-2.57-0.104
			c-2.933,0-4.683,1.806-4.683,4.83v3.028c0,0.332-0.269,0.601-0.6,0.601H9.6v2.909h2.947c0.332,0,0.6,0.27,0.6,0.6V25.952z"/>
	</g>
</g>
</svg>
